<svg xmlns="http://www.w3.org/2000/svg" width="399.93" height="124.856" viewBox="0 0 399.93 124.856">
  <path id="design4" d="M-664.1,768.117h399.93V892.57c-1.124.057-2.245.163-3.367.163q-97.036.011-194.072.009-100.32.019-200.639.076c-.617,0-1.235.1-1.852.155Zm257.94,71.334v52.1h27.37V768.961H-399.54v70.49Zm-229.921,52.29V839.393h-6.545V769.05h-20.612V891.741Zm36.741-122.829V839.5h-6.542v52.153h27.214V768.912Zm42.068,70.461V768.958h-20.36V891.7h27.286V839.373Zm94.032-70.514v122.76h27.2V839.486h-6.671V768.859ZM-264.806,891.7V768.91h-20.446v70.34l-6.645.334V891.7Zm-200.057.037V768.967h-20.425V839.32l-6.6.321v52.091Zm87.3-122.9V891.6h27.183V839.915l-6.887-.346V768.831ZM-520.792,891.642h27.834V839.387h-7.108V769.026H-514.1V839.57l-6.687.324Zm85.776-.022h27.648V839.328h-6.707V768.956h-13.808v70.567h-7.133Zm134.7-52.168v-70.5h-13.878V839.61l-6.589.356v51.643h27.846V839.453Zm-334.465.122v52.113h27.467V839.314h-6.908V768.957H-627.9v70.617Zm85.755-.344v52.4h27.174V839.895l-7.062-.341V769h-13.413V839.23Zm199.769.531v51.821h27.116V839.661h-6.884V768.971H-342.41v70.791Z" transform="translate(664.103 -768.117)" fill="#371777" opacity="0.033"/>
</svg>
