<svg xmlns="http://www.w3.org/2000/svg" width="49" height="49" viewBox="0 0 49 49">
  <g id="google" transform="translate(-909 -645)">
    <circle id="Ellipse_108" data-name="Ellipse 108" cx="24.5" cy="24.5" r="24.5" transform="translate(909 645)" opacity="0.1"/>
    <path id="Icon_awesome-google" data-name="Icon awesome-google" d="M21.814,11.907c0,6.325-4.331,10.826-10.728,10.826a11.086,11.086,0,0,1,0-22.171,10.661,10.661,0,0,1,7.434,2.9L15.5,6.365C11.555,2.556,4.215,5.417,4.215,11.648a6.944,6.944,0,0,0,6.87,7,6,6,0,0,0,6.294-4.778H11.086V10.057H21.639A9.718,9.718,0,0,1,21.814,11.907Z" transform="translate(923 657.438)"/>
  </g>
</svg>
