<svg xmlns="http://www.w3.org/2000/svg" xmlns:xlink="http://www.w3.org/1999/xlink" width="435.848" height="410.21" viewBox="0 0 435.848 410.21">
  <defs>
    <linearGradient id="linear-gradient" x1="0.5" x2="0.5" y2="1" gradientUnits="objectBoundingBox">
      <stop offset="0" stop-color="#febe2c"/>
      <stop offset="1" stop-color="#fd8023"/>
    </linearGradient>
  </defs>
  <g id="piano" transform="translate(0 -15)">
    <g id="Group_2267" data-name="Group 2267" transform="translate(42.73 57.73)">
      <path id="XMLID_220_" d="M50,287.2V129.1a64.1,64.1,0,0,1,128.191,0,98.391,98.391,0,0,0,98.279,98.279h84.606a39.357,39.357,0,0,1,39.312,39.312V287.2Z" transform="translate(-50 -65)" fill="url(#linear-gradient)"/>
    </g>
    <g id="Group_2268" data-name="Group 2268" transform="translate(0 15)">
      <path id="Path_8059" data-name="Path 8059" d="M353.806,177.375H269.2a55.612,55.612,0,0,1-55.549-55.549A106.825,106.825,0,0,0,0,121.825V314.111a8.546,8.546,0,0,0,8.546,8.546h8.546v94.006a8.546,8.546,0,0,0,8.546,8.546H410.21a8.546,8.546,0,0,0,8.546-8.546V322.657H427.3a8.546,8.546,0,0,0,8.546-8.546V259.417A82.134,82.134,0,0,0,353.806,177.375ZM34.184,322.657H59.822v51.276a8.546,8.546,0,0,0,8.546,8.546H81.187v25.638h-47Zm111.1,0v51.276a8.546,8.546,0,0,0,8.546,8.546h12.819v25.638H98.279V382.48H111.1a8.546,8.546,0,0,0,8.546-8.546V322.657Zm85.46,0v51.276a8.546,8.546,0,0,0,8.546,8.546h12.819v25.638H183.74V382.48h12.819a8.546,8.546,0,0,0,8.546-8.546V322.657Zm85.46,0v51.276a8.546,8.546,0,0,0,8.546,8.546h12.819v25.638H269.2V382.48h12.819a8.546,8.546,0,0,0,8.546-8.546V322.657Zm17.092,42.73v-42.73h25.638v42.73Zm-59.822,0H247.835v-42.73h25.638Zm-85.46,0H162.375v-42.73h25.638Zm-85.46,0H76.914v-42.73h25.638Zm299.111,42.73h-47V382.48H367.48a8.546,8.546,0,0,0,8.546-8.546V322.657h25.638Zm17.092-102.552H17.092V121.825a89.733,89.733,0,1,1,179.467,0A72.724,72.724,0,0,0,269.2,194.467h84.606a65.023,65.023,0,0,1,64.95,64.95Z" transform="translate(0 -15)" fill="url(#linear-gradient)"/>
      <path id="Path_8060" data-name="Path 8060" d="M365.638,156.1a25.667,25.667,0,0,0,25.638-25.638V69.636l51.276-6.41V89.2a25.636,25.636,0,1,0,17.092,24.168V53.546a8.549,8.549,0,0,0-9.606-8.48L381.67,53.611a8.546,8.546,0,0,0-7.486,8.48v44.2a25.637,25.637,0,1,0-8.546,49.806Zm68.368-34.184a8.546,8.546,0,1,1,8.546-8.546A8.556,8.556,0,0,1,434.006,121.914Zm-68.368,0a8.546,8.546,0,1,1-8.546,8.546A8.556,8.556,0,0,1,365.638,121.914Z" transform="translate(-49.435 -19.362)" fill="url(#linear-gradient)"/>
    </g>
  </g>
</svg>
