<svg xmlns="http://www.w3.org/2000/svg" width="23.421" height="15.068" viewBox="0 0 23.421 15.068">
  <g id="user2" transform="translate(-34 -531.241)">
    <path id="Path_8139" data-name="Path 8139" d="M18.279,79.1a.757.757,0,0,1,.054.793.768.768,0,0,1-.286.3.78.78,0,0,1-.4.111H3.681a.783.783,0,0,1-.4-.111.771.771,0,0,1-.286-.3.757.757,0,0,1,.054-.793,9.315,9.315,0,0,1,4.4-3.335,5.755,5.755,0,0,1-2.255-2.838,5.672,5.672,0,0,1-.1-3.605,5.744,5.744,0,0,1,2.1-2.951,5.88,5.88,0,0,1,6.938,0,5.744,5.744,0,0,1,2.1,2.951,5.672,5.672,0,0,1-.1,3.605,5.755,5.755,0,0,1-2.255,2.838,9.315,9.315,0,0,1,4.4,3.334Zm7.905,0a9.315,9.315,0,0,0-4.4-3.334,5.748,5.748,0,0,0,2.374-3.213,5.674,5.674,0,0,0-.31-3.965,5.781,5.781,0,0,0-2.845-2.815,5.889,5.889,0,0,0-4.016-.316.778.778,0,0,0-.323.181.765.765,0,0,0-.2.309.758.758,0,0,0,.112.7,7.18,7.18,0,0,1,.372,8.124.759.759,0,0,0,.2,1.015q.441.324.848.691c.014.015.028.03.044.044a10.734,10.734,0,0,1,2.471,3.341.768.768,0,0,0,.286.322.783.783,0,0,0,.417.12H25.55a.783.783,0,0,0,.4-.111.77.77,0,0,0,.286-.3.757.757,0,0,0-.054-.793Z" transform="translate(31.095 466)" fill="#fd8023"/>
  </g>
</svg>
