<svg xmlns="http://www.w3.org/2000/svg" width="49" height="49" viewBox="0 0 49 49">
  <g id="apple" transform="translate(-977 -647)">
    <circle id="Ellipse_109" data-name="Ellipse 109" cx="24.5" cy="24.5" r="24.5" transform="translate(977 647)" opacity="0.1"/>
    <g id="Icon_ionic-logo-apple" data-name="Icon ionic-logo-apple" transform="translate(985.252 655.5)">
      <path id="Path_8038" data-name="Path 8038" d="M20.52,10.821c-1.947,0-2.77.956-4.126.956-1.391,0-2.451-.95-4.138-.95a5.622,5.622,0,0,0-4.532,2.8c-1.571,2.492-1.3,7.186,1.24,11.185.91,1.431,2.127,3.037,3.721,3.054h.029c1.385,0,1.8-.933,3.7-.945h.029c1.878,0,2.254.939,3.634.939h.029c1.594-.017,2.875-1.8,3.784-3.222a15.852,15.852,0,0,0,1.4-2.7,4.959,4.959,0,0,1-.632-8.861,5.45,5.45,0,0,0-4.144-2.26Z" transform="translate(0 -1.111)"/>
      <path id="Path_8039" data-name="Path 8039" d="M21.991,4.5a5.068,5.068,0,0,0-3.3,1.831,4.61,4.61,0,0,0-1.078,3.524H17.7a4.3,4.3,0,0,0,3.234-1.744A4.936,4.936,0,0,0,21.991,4.5Z" transform="translate(-1.9)"/>
    </g>
  </g>
</svg>
