<svg xmlns="http://www.w3.org/2000/svg" width="49" height="49" viewBox="0 0 49 49">
  <g id="chat" transform="translate(-1060 -647)">
    <circle id="Ellipse_110" data-name="Ellipse 110" cx="24.5" cy="24.5" r="24.5" transform="translate(1060 647)" opacity="0.1"/>
    <path id="Icon_simple-wechat" data-name="Icon simple-wechat" d="M26.61,15.164a7.476,7.476,0,0,0-3.5-3.562,9.621,9.621,0,0,0-8.624.034,7.151,7.151,0,0,0-3.82,4.7,6.042,6.042,0,0,0,.769,4.478A8.255,8.255,0,0,0,17.06,24.49a10.348,10.348,0,0,0,4.9-.322c.952.369,1.8.965,2.722,1.408-.239-.8-.493-1.589-.764-2.376a7.684,7.684,0,0,0,2.537-2.8A6.076,6.076,0,0,0,26.61,15.164ZM15.392,4.464a11.434,11.434,0,0,0-9.366-.729A9.532,9.532,0,0,0,1.113,7.6a7.25,7.25,0,0,0-.9,5.558A8.512,8.512,0,0,0,3.9,18.148c-.339.961-.661,1.921-.966,2.888,1.1-.577,2.2-1.179,3.308-1.765a12.278,12.278,0,0,0,4.137.586,6.962,6.962,0,0,1-.288-3.336A7.079,7.079,0,0,1,12.341,12.5a9.776,9.776,0,0,1,7.343-2.409,8.556,8.556,0,0,0-4.323-5.629h.031Zm1.959,11.292a1.113,1.113,0,1,1-1.424-1.437,1.125,1.125,0,0,1,1.424,1.437Zm5.42.1a1.137,1.137,0,0,1-1.782.305,1.693,1.693,0,0,1-.389-.825,1.251,1.251,0,0,1,1.051-1.08,1.133,1.133,0,0,1,1.1,1.6h.017Zm-8.088-7.3a1.635,1.635,0,1,1,0-.014ZM7.835,8.84A1.389,1.389,0,1,1,6.025,7.2,1.4,1.4,0,0,1,7.835,8.84Z" transform="translate(1071.001 656.939)"/>
  </g>
</svg>
