<svg xmlns="http://www.w3.org/2000/svg" xmlns:xlink="http://www.w3.org/1999/xlink" width="702" height="575.243" viewBox="0 0 702 575.243">
  <defs>
    <linearGradient id="linear-gradient" x1="0.5" x2="0.5" y2="1" gradientUnits="objectBoundingBox">
      <stop offset="0" stop-color="#febe2c"/>
      <stop offset="1" stop-color="#fd8023"/>
    </linearGradient>
    <linearGradient id="linear-gradient-7" x1="0.104" y1="0.5" x2="0.725" y2="0.5" xlink:href="#linear-gradient"/>
  </defs>
  <g id="design" transform="translate(-734 -180)">
    <path id="Path_8131" data-name="Path 8131" d="M6626,2830.28s167.736-40.092,220.223,98.689-342.259,381.5-121.3,431.559,364.787-162.787,482.576-118.364" transform="translate(-5840.032 -2613.365)" fill="none" stroke="#fd8023" stroke-width="1"/>
    <ellipse id="Oval" cx="48" cy="47.5" rx="48" ry="47.5" transform="translate(734 180)" fill="#f7f8fa"/>
    <ellipse id="Oval-2" data-name="Oval" cx="48" cy="47.5" rx="48" ry="47.5" transform="translate(1340 583)" fill="#f7f8fa"/>
    <g id="piano" transform="translate(759.727 203.818)">
      <g id="Group_2267" data-name="Group 2267" transform="translate(4.58 4.58)">
        <path id="XMLID_220_" d="M50,88.815V71.87a6.87,6.87,0,1,1,13.739,0A10.546,10.546,0,0,0,74.273,82.4h9.068a4.218,4.218,0,0,1,4.213,4.213v2.2Z" transform="translate(-50 -65)" fill="url(#linear-gradient)"/>
      </g>
      <g id="Group_2268" data-name="Group 2268" transform="translate(0 0)">
        <path id="Path_8059" data-name="Path 8059" d="M37.921,32.4H28.853A5.961,5.961,0,0,1,22.9,26.45a11.45,11.45,0,0,0-22.9,0V47.059a.916.916,0,0,0,.916.916h.916V58.05a.916.916,0,0,0,.916.916H43.966a.916.916,0,0,0,.916-.916V47.975H45.8a.916.916,0,0,0,.916-.916V41.2A8.8,8.8,0,0,0,37.921,32.4ZM3.664,47.975H6.412v5.5a.916.916,0,0,0,.916.916H8.7v2.748H3.664Zm11.908,0v5.5a.916.916,0,0,0,.916.916h1.374v2.748H10.534V54.386h1.374a.916.916,0,0,0,.916-.916v-5.5Zm9.16,0v5.5a.916.916,0,0,0,.916.916h1.374v2.748H19.693V54.386h1.374a.916.916,0,0,0,.916-.916v-5.5Zm9.16,0v5.5a.916.916,0,0,0,.916.916h1.374v2.748H28.853V54.386h1.374a.916.916,0,0,0,.916-.916v-5.5Zm1.832,4.58v-4.58h2.748v4.58Zm-6.412,0H26.563v-4.58h2.748Zm-9.16,0H17.4v-4.58h2.748Zm-9.16,0H8.244v-4.58h2.748Zm32.059,4.58H38.013V54.386h1.374a.916.916,0,0,0,.916-.916v-5.5H43.05Zm1.832-10.992H1.832V26.45a9.618,9.618,0,0,1,19.235,0,7.8,7.8,0,0,0,7.786,7.786h9.068A6.969,6.969,0,0,1,44.882,41.2Z" transform="translate(0 -15)" fill="url(#linear-gradient)"/>
        <path id="Path_8060" data-name="Path 8060" d="M342.748,56.905a2.751,2.751,0,0,0,2.748-2.748V47.638l5.5-.687v2.784a2.748,2.748,0,1,0,1.832,2.59V45.914a.916.916,0,0,0-1.03-.909l-7.328.916a.916.916,0,0,0-.8.909v4.737a2.748,2.748,0,1,0-.916,5.338Zm7.328-3.664a.916.916,0,1,1,.916-.916A.917.917,0,0,1,350.076,53.241Zm-7.328,0a.916.916,0,1,1-.916.916A.917.917,0,0,1,342.748,53.241Z" transform="translate(-308.857 -42.25)" fill="url(#linear-gradient)"/>
      </g>
    </g>
    <g id="music-piano-keys" transform="translate(1362.463 582.069)">
      <g id="Group_2270" data-name="Group 2270" transform="translate(0 27.881)">
        <path id="Path_8121" data-name="Path 8121" d="M7.431,56.018H4.268V31.358H12.8v24.66H9.328V68.981h6.164v-41.1H0v41.1H7.431Z" transform="translate(0 -27.881)" fill="url(#linear-gradient)"/>
        <path id="Path_8122" data-name="Path 8122" d="M104.414,68.981V56.018h-3.249V31.358H109.7v24.66h-3.39V68.981h6.355v-41.1H97.214v41.1Z" transform="translate(-79.825 -27.881)" fill="url(#linear-gradient)"/>
        <path id="Path_8123" data-name="Path 8123" d="M202.148,27.881h-7.943v41.1h16.336v-41.1Zm4.126,28.137h-3.162V68.506h-1.9V56.018h-3.477V31.358h8.536Z" transform="translate(-159.467 -27.881)" fill="url(#linear-gradient)"/>
      </g>
    </g>
    <g id="Group_2292" data-name="Group 2292" transform="matrix(0.985, 0.174, -0.174, 0.985, 68.472, -214.218)">
      <path id="Path_3" data-name="Path 3" d="M80.466,0l.758,1.851C43.356,17.36,15.229,42.241,1.877,78.563L0,77.873C13.568,40.961,42.12,15.705,80.466,0Z" transform="translate(1343.482 228.407) rotate(69)" fill="url(#linear-gradient-7)"/>
      <path id="Path_3-2" data-name="Path 3" d="M56.536,0l.756,1.852c-21.963,8.967-45.8,31.782-55.464,53.481L0,54.519C9.874,32.345,34.1,9.161,56.536,0Z" transform="translate(1341.339 225.026) rotate(69)" fill="url(#linear-gradient-7)"/>
    </g>
  </g>
</svg>
