<svg xmlns="http://www.w3.org/2000/svg" xmlns:xlink="http://www.w3.org/1999/xlink" width="439" height="312" viewBox="0 0 439 312">
  <defs>
    <clipPath id="clip-path">
      <rect id="Rectangle_934" data-name="Rectangle 934" width="439" height="312" transform="translate(4510 6287)" fill="#4b0303" stroke="#707070" stroke-width="1"/>
    </clipPath>
  </defs>
  <g id="design3" transform="translate(-4510 -6287)" opacity="0.033" clip-path="url(#clip-path)">
    <g id="YqMBy9.tif" transform="translate(4988.448 6183.891)">
      <g id="Group_2496" data-name="Group 2496" transform="translate(-530.448 18.109)">
        <path id="Path_8164" data-name="Path 8164" d="M-530.448,132.275c8.317.066,16.634.169,24.951.188,13.708.032,27.418.063,41.125-.031,2.816-.019,3.947.908,3.932,3.805-.082,16.034.018,32.069-.122,48.1a9.918,9.918,0,0,1-1.836,5.368c-3.775,5.209-13.455,8.149-19.618,6.262-5.087-1.559-6.462-5.847-2.933-9.914,4.2-4.84,9.8-6.677,16.087-6.608,1.191.012,2.38.152,3.816.249V141.32h-35.6c-.066,1.5-.174,2.817-.175,4.128-.013,12.362-.219,24.73.088,37.085.141,5.643-2.332,9.42-7.1,11.193a38.743,38.743,0,0,1-13.087,2.293c-1.993.012-5.091-2.193-5.694-4.042s.685-5.062,2.2-6.7c4.007-4.341,9.4-5.963,15.292-5.834,1.2.025,2.39.147,3.8.24V141.089h-25.118Z" transform="translate(530.448 35.66)"/>
        <path id="Path_8165" data-name="Path 8165" d="M-395.673,399.273c.2-7.542-1.367-14.6-6.057-20.672-3.986-5.163-9.661-7.3-14.951-5.654a14.82,14.82,0,0,1,3.305,15.2c-.968,3.06-2.6,5.822-6.177,5.89-3.616.068-5.244-2.695-6.281-5.738-2.365-6.942-.056-13.358,6.335-16.824a42.707,42.707,0,0,1,9.123-3.711c9.139-2.47,16.407.786,20.807,9.239a42.144,42.144,0,0,1,4.913,22.273Z" transform="translate(579.291 146.189)"/>
        <path id="Path_8166" data-name="Path 8166" d="M-530.448,103.393h9.573V99.3q0-18.5.006-37c0-1.1-.263-2.34.159-3.255a11.789,11.789,0,0,1,2.435-2.685c.566.943,1.619,1.883,1.625,2.829.1,16.482.147,32.967-.049,49.45-.022,1.85-1.1,4.436-2.543,5.375-3.466,2.258-7.437,3.739-11.206,5.534Z" transform="translate(530.448 -0.092)"/>
        <path id="Path_8167" data-name="Path 8167" d="M-176.813,396.4c-1.074-.752-2.445-1.291-3.16-2.3-1.4-1.98-3.249-4.151-3.439-6.369-.26-3.043,2.61-4.519,5.282-5.276a21.433,21.433,0,0,1,16.047,1.522c1.081.55,2.115,1.193,3.379,1.912,2.1-4.351,4.139-8.589,6.18-12.828,1.468,9.323-1.821,16.879-8.13,23.338Z" transform="translate(693.886 149.064)"/>
        <path id="Path_8168" data-name="Path 8168" d="M-530.448,18.43h25.438c-2.983,13.033-11.557,14.227-22.443,10.863a27.91,27.91,0,0,1-2.995-1.315Z" transform="translate(530.448 -17.958)"/>
        <path id="Path_8169" data-name="Path 8169" d="M-352.665,215.369V191.28h-35.617c-.069,1.18-.206,2.464-.209,3.748-.022,8.077-.112,16.157.029,24.231a9.562,9.562,0,0,1-3.905,8.261c-4.879,3.752-10.447,5.581-16.5,4.3-2.106-.444-5-2.258-5.471-4.007-.533-1.956.671-5.081,2.17-6.759,3.754-4.2,8.9-5.856,14.529-5.872,1.45,0,2.9,0,4.6,0V191.249h-35.581c-.063,1.242-.181,2.532-.184,3.822-.018,8.077-.1,16.157.034,24.231a9.541,9.541,0,0,1-3.938,8.242c-4.891,3.744-10.46,5.613-16.5,4.253-2.168-.49-4.918-2.471-5.571-4.4-.582-1.712.824-4.785,2.3-6.38,3.925-4.235,9.161-5.9,14.926-5.841,1.325.013,2.649,0,4.241,0V191.248h-34.1c-.054,1.247-.159,2.542-.16,3.838-.015,8.2.169,16.406-.124,24.595a10.6,10.6,0,0,1-2.509,6.538,18.7,18.7,0,0,1-17.766,5.568c-2.153-.443-4.9-2.479-5.554-4.406-.581-1.708.814-4.781,2.287-6.365,3.932-4.22,9.163-5.9,14.932-5.834,1.315.016,2.63,0,4.431,0v-4.336c0-12.361-.018-24.721.016-37.082.012-5,.572-5.532,5.425-5.532,37.817,0,75.633.043,113.45-.072,3.622-.01,4.929.915,4.884,4.716-.188,15.417-.15,30.84-.025,46.259a9.994,9.994,0,0,1-4.4,8.755,21.222,21.222,0,0,1-14.105,4.278c-3.277-.2-6.58-.928-7.677-4.525-1.041-3.414,1.125-5.852,3.6-7.83a20.791,20.791,0,0,1,13.983-4.625C-355.517,215.226-354.3,215.3-352.665,215.369Zm-35.68-33.259h35.352c.987-5.138.88-5.291-3.848-5.3q-13.751-.015-27.5.006c-1.293,0-2.586.147-4,.234Zm-4.616-4.947h-35.524v4.909h35.524Zm-40.272-.362c-10.317,0-20.2-.006-30.086,0-4.654,0-4.8.216-3.766,5.218h33.852Z" transform="translate(547.772 52.562)"/>
        <path id="Path_8170" data-name="Path 8170" d="M-340.89,224.515c-.971-7.973-1.873-15.472-2.8-22.966-.813-6.558-1.63-13.114-2.5-19.664-.421-3.174.736-4.669,4.07-5.076,36.436-4.454,72.849-9.091,109.291-13.5,10.456-1.265,8.474-2.565,9.88,7.837,1.768,13.093,3.2,26.232,4.962,39.325,1.469,10.9-11.187,20.854-21.529,16.775-3.635-1.434-4.717-5.168-2.277-8.82,3.652-5.466,9.086-7.984,15.475-8.651,1.065-.11,2.152-.015,3.844-.015-1.573-12.914-3.1-25.474-4.694-38.54l-35.665,4.373c.7,6.1,1.344,11.985,2.07,17.865,1.018,8.258,2.234,16.494,3.052,24.771a10.912,10.912,0,0,1-1.358,6.219c-3.354,5.677-12.431,9.416-18.881,8.192-4.664-.886-6.587-4.688-4.111-8.76,3.42-5.628,8.8-8.28,15.2-9.048,1.312-.159,2.648-.134,4.436-.213-1.586-12.77-3.146-25.326-4.775-38.428l-35.708,4.384c.615,5.1,1.172,9.8,1.75,14.5,1.1,8.988,2.056,18,3.4,26.951.73,4.867-1.03,8.323-4.707,11.14-4.125,3.16-8.776,5.144-13.97,4.472-2.158-.279-5.1-1.625-5.894-3.323-.8-1.721-.074-4.976,1.178-6.686,4.364-5.963,10.776-8.123,18.712-8.077-1.589-12.811-3.154-25.436-4.762-38.4-9.285,1.14-18.122,2.23-26.96,3.308-7.2.88-7.247.88-6.352,8.226,1.361,11.175,2.571,22.375,4.286,33.5.931,6.046-1.6,9.875-6.28,12.88-3.907,2.508-8.154,4.005-12.858,3.445-6.143-.733-8.123-5.262-4.331-10.181a19.934,19.934,0,0,1,15.183-7.8C-343.554,224.463-342.585,224.515-340.89,224.515Z" transform="translate(609.958 49.88)"/>
        <path id="Path_8171" data-name="Path 8171" d="M-212.117,337.014c-2.5-9.748-4.9-19.077-7.295-28.408q-1.73-6.752-3.438-13.508c-.633-2.508-.1-4.135,2.786-4.875q44.6-11.4,89.16-22.958a6,6,0,0,1,1.283-.012v8.4c-3.7,1.014-7.321,2-11.282,3.086.418,1.78.768,3.274,1.242,5.293l9.954-2.37v8.577l-7.681,2.257c1.309,5.309,2.557,10.481,3.866,15.636q1.489,5.865,3.116,11.7a9.348,9.348,0,0,1-1.572,8.671c-3.833,5.006-8.791,8.3-15.154,8.5-2.148.068-5.253-.966-6.266-2.554s-.708-4.9.306-6.758c3.536-6.481,9.57-9.5,17.481-10.407-2.008-7.909-3.966-15.622-6.043-23.806l-34.872,8.969c2.174,8.5,4.254,16.628,6.338,24.758,2.733,10.65-6.421,21.029-17.6,19.955-4.919-.472-7.059-4.1-4.86-8.62,2.814-5.79,7.792-8.92,13.848-10.528,1.169-.31,2.379-.478,4.155-.828l-6.055-23.662-33.326,8.573c1.874,7.4,3.666,14.471,5.456,21.542.3,1.184.583,2.374.9,3.555,2.842,10.64-7.676,21.6-18.706,19.48-4.31-.825-5.954-4.756-3.508-9.142,3.1-5.565,8.093-8.685,14.257-10C-214.687,337.335-213.717,337.248-212.117,337.014Zm66.868-57.23-34.771,8.939c.544,2,.969,3.576,1.471,5.425l34.716-8.963C-144.356,283.188-144.749,281.694-145.249,279.785ZM-182.81,295.23c-.588-2.015-1.043-3.577-1.578-5.407l-33.326,8.624c.693,2.083,1.206,3.623,1.771,5.318Z" transform="translate(671.467 99.218)"/>
        <path id="Path_8172" data-name="Path 8172" d="M-369.921,160.35c.744-7.871,1.49-15.75,2.286-24.164l-34.322-3.163c-.834,8.919-1.714,17.41-2.4,25.919-.574,7.112-2.508,10.389-9.411,12.181a28.99,28.99,0,0,1-12.868.466c-5.685-1.209-6.615-6.725-2.139-10.545,5.734-4.894,12.483-5.726,20.186-3.954.647-6.565,1.294-12.952,1.9-19.343.743-7.793,1.508-15.586,2.151-23.389.252-3.07,1.587-4.286,4.74-3.991,24.6,2.314,49.214,4.517,73.816,6.815,4.775.446,4.81.693,4.364,5.453-1.417,15.1-2.861,30.205-4.122,45.321-.315,3.76-1.8,6.53-4.956,8.455-5.007,3.052-10.462,4.553-16.119,2.776-2.262-.712-5.2-2.888-5.61-4.86-.406-1.949,1.465-5.088,3.258-6.637,4.354-3.758,9.781-4.8,15.492-4.085,1.181.147,2.351.381,3.879.634l2.249-24.373-35.771-3.3c-.7,7.161-1.365,13.927-2.017,20.7-.118,1.218-.152,2.443-.259,3.663-.933,10.641-7.7,16.2-18.453,15.172-5.065-.487-8.149-2.384-8.741-5.373s1.54-6.071,5.869-8.463C-383.007,160.1-379.4,159.685-369.921,160.35Zm43.532-34.593c-10.846-1.019-21.157-2.023-31.474-2.943-4.7-.419-5.2.257-4.073,5.31l35.1,3.161Zm-74-6.79c-1.214,5.622-1.209,5.565,3.705,5.985,6.819.584,13.629,1.283,20.445,1.9,3,.272,6.01.459,9.229.7l.7-5.493Z" transform="translate(577.001 25.322)"/>
        <path id="Path_8173" data-name="Path 8173" d="M-309,47.956c1.672,9.382,3.268,18.375,4.878,27.365.884,4.934,2.155,9.835,2.539,14.807a12.776,12.776,0,0,1-1.952,7.786c-3.557,5.05-8.921,7.508-15.083,7.9-2.892.184-6.286-.216-7.043-3.317a10.256,10.256,0,0,1,1.561-7.35c3.422-4.991,8.723-7.278,14.641-8.124.825-.118,1.665-.137,3-.243-1.18-6.671-2.3-13.117-3.461-19.558-1.3-7.221-2.657-14.43-3.933-21.656-.8-4.511-.306-5.282,4.256-6.116,24.3-4.442,48.607-8.8,72.894-13.28,2.976-.549,4.2.331,4.716,3.292q4.038,23.313,8.332,46.581a9.616,9.616,0,0,1-2.624,8.755,21.011,21.011,0,0,1-14.142,6.961c-2.854.228-5.8-.085-7.409-2.936-1.712-3.043-.244-5.74,1.659-8.079,4.364-5.365,10.285-7.618,17.58-7.936-2.284-12.68-4.525-25.112-6.862-38.092l-35.387,6.35c1.184,6.728,2.284,13.083,3.426,19.43,1.319,7.34,2.586,14.694,4.05,22.006a10.3,10.3,0,0,1-3.089,10.007c-3.9,3.855-8.564,6.372-14.023,6.293a10.512,10.512,0,0,1-6.937-2.973c-2.043-2.234-.521-5.14,1.171-7.355,4.378-5.734,10.376-8.295,17.989-8.4l-6.827-38.212Z" transform="translate(626.816 -14.385)"/>
        <path id="Path_8174" data-name="Path 8174" d="M-363.855,338.07c4.229-1.578,5.94-3.848,5.9-8.318-.054-6.21-2.6-11.56-6.013-16.631a80.368,80.368,0,0,1-8.521,2.567c-18.449,3.441-30.068-8.211-26.074-26.561,1.52-6.983,4.261-13.729,6.8-20.447a7.475,7.475,0,0,0-.026-6.207,110.326,110.326,0,0,1-4.681-12.717c-2.154-7.5-.681-14.6,3.666-20.961,3.539-5.182,7.981-5.088,12.012-.24,4.506,5.418,5.04,11.69,3.339,18.027a111.142,111.142,0,0,1-6.143,16.4c-1.008,2.254-1.368,4,.013,6.027a11.456,11.456,0,0,1,.652,1.312c1.111,2.177,1.712,5.219,3.491,6.269,1.6.947,4.522-.663,6.806-.48,3.967.322,8.159.485,11.78,1.92,7.551,2.993,10.8,11.118,7.928,19.33a41.012,41.012,0,0,1-5.6,10.192c-1.336,1.853-1.343,2.986-.249,4.77,3.445,5.609,5.816,11.6,5.509,18.339-.269,5.915-3.323,10.273-8.174,11.927a14.016,14.016,0,0,1-14.86-4.548,11.543,11.543,0,0,1-1.233-1.817c-1.646-3.092-1.275-7.593.833-10.045a6.737,6.737,0,0,1,7.253-2.33,8.721,8.721,0,0,1,6.222,7.848A39.525,39.525,0,0,1-363.855,338.07Zm-23.627-65.9c-3.3,4.207-7.181,15.937-7.42,22.119-.256,6.661,2.777,12.161,7.977,14.463,5.276,2.334,13.246.691,17.609-3.68l-11.1-19.017-1.012.16a36.286,36.286,0,0,0-1.065,6.249,44.431,44.431,0,0,0,.993,6.814,10.291,10.291,0,0,1-4.053-15.99c.874-1.087,1.977-2.83,1.661-3.87C-384.659,276.908-386.2,274.635-387.482,272.17Zm22.063,30.214c7.214-6.609,9.148-13.1,5.922-17.714-2.636-3.77-11.956-5.779-17.107-1.858Zm-22.206-42.252A58.508,58.508,0,0,0-384.4,254.2a18.149,18.149,0,0,0-1.736-17.49,4.187,4.187,0,0,0-3.23-1.792c-.963.147-1.936,1.621-2.477,2.723a10.2,10.2,0,0,0-.674,3.57C-393.094,247.843-390.317,253.589-387.625,260.132Z" transform="translate(592.192 79.29)"/>
        <path id="Path_8175" data-name="Path 8175" d="M-463.775,383.5c-.946-8.71-1.846-16.949-2.736-25.188-.631-5.834-1.225-11.672-1.883-17.5-.34-3,.716-4.436,3.932-4.759,11.678-1.169,23.334-2.557,34.993-3.908,2.242-.26,3.455.432,3.711,2.824,1.737,16.166,3.6,32.319,5.21,48.5a8.935,8.935,0,0,1-1.539,5.8c-4.651,6.084-11.013,8.838-18.653,7.82-5.1-.68-6.9-4.92-4-9.219,3.85-5.694,9.6-8.08,16.268-8.543.844-.059,1.7-.009,3.16-.009-.843-8.051-1.674-15.985-2.559-24.433l-33.96,3.7c0,1.136-.084,2.065.013,2.977.89,8.388,1.874,16.766,2.674,25.164a11.294,11.294,0,0,1-.571,5.325c-2.773,6.446-14.086,11.287-20.71,9.089-4.2-1.393-5.473-5.206-2.789-9.114,3.808-5.544,9.472-7.856,15.948-8.507C-466.3,383.416-465.332,383.5-463.775,383.5Zm34.312-42.736-34.259,3.826.8,5.512,33.953-3.741Z" transform="translate(552.033 129.768)"/>
        <path id="Path_8176" data-name="Path 8176" d="M-304.4,271.018c2.212-8.935,4.356-17.569,6.487-26.208q1.889-7.659,3.745-15.323c.682-2.814,2.036-4.139,5.256-3.314,11.369,2.913,22.785,5.651,34.2,8.392,2.545.61,3.308,1.784,2.632,4.456-3.9,15.408-7.57,30.874-11.525,46.27a9.853,9.853,0,0,1-3.438,5.35c-6.1,4.2-12.883,4.57-19.511,1.5-1.906-.881-4.091-3.47-4.164-5.353s1.926-4.472,3.73-5.694c4.928-3.335,10.562-3.46,16.237-2.087,1.278.309,2.512.8,4.008,1.284l5.854-23.775-33.328-8.262c-1.212,4.682-2.412,9.23-3.567,13.792-1.109,4.386-2.368,8.746-3.193,13.186a9.867,9.867,0,0,1-6.764,7.951c-5.6,2.086-11.288,2.361-16.749-.355-5.27-2.621-5.443-7.586-.557-10.913C-320.022,268.5-312.859,268.107-304.4,271.018Zm45.552-22.838c.5-2.1.853-3.6,1.293-5.459-11.229-2.764-22.187-5.459-33.4-8.217-.471,1.987-.847,3.582-1.29,5.448Z" transform="translate(625.522 79.77)"/>
        <path id="Path_8177" data-name="Path 8177" d="M-336.614,77.823c1.961-7.983,3.866-15.736,5.85-23.817-10.806-2.664-21.1-5.26-31.448-7.618-.69-.157-2.354,1.355-2.618,2.343-2.155,8.03-4.192,16.1-6.034,24.2a10.162,10.162,0,0,1-6.928,7.817c-5.776,2.118-11.518,2.343-17.029-.68-4.681-2.567-4.925-7.19-.531-10.269,5.262-3.685,11.137-4.029,17.212-2.527,1.164.287,2.287.727,3.839,1.23,1.594-6.283,3.173-12.4,4.692-18.527,1.852-7.477,3.642-14.97,5.482-22.451,1.006-4.085,1.893-4.614,5.89-3.636,11.165,2.735,22.319,5.515,33.5,8.168,2.524.6,3.479,1.58,2.783,4.335-3.947,15.651-7.731,31.342-11.627,47.006a8.824,8.824,0,0,1-1.562,3.269c-4.565,5.756-18.189,6.633-23.642,1.59-2.754-2.548-2.776-6.056.34-8.558,5.129-4.119,11.073-4.831,17.346-3.338C-339.7,76.7-338.349,77.25-336.614,77.823Zm9.185-37.579-33.353-8.232-1.261,5.482,33.353,8.195Z" transform="translate(592.594 -15.584)"/>
        <path id="Path_8178" data-name="Path 8178" d="M-228.452,18.109l5.525,1.689,7.111-1.533.541,1.072a79.253,79.253,0,0,0-5.644,6.521,7.116,7.116,0,0,0-1.253,4.478c.377,3.363,1.274,6.666,1.843,9.426,4.376.862,8.5,1.086,12.158,2.5,11.332,4.388,14.5,15.585,7.348,25.392a25.43,25.43,0,0,1-6.4,6.463c-2.739,1.765-2.923,3.449-2.123,6.294,1.675,5.955,2.19,12.038.272,18.1-1.789,5.65-6.391,9.26-11.855,9.319A14.067,14.067,0,0,1-233.6,98.8c-1.409-4.045-.1-8.685,3.067-10.878a7.165,7.165,0,0,1,8.821.638A9.582,9.582,0,0,1-220,100.033c-.468.844-1.021,1.642-1.564,2.508,4.105.406,6.814-1.634,8.076-6.085,1.711-6.032.419-11.847-1.143-17.322-4.979-.321-9.78-.115-14.36-1.021-12.508-2.477-18.731-13.064-15.335-25.376,2.056-7.453,6.121-13.829,10.762-19.882C-228.638,26.435-228.628,26.444-228.452,18.109Zm1.614,14.274c-5.991,7.025-11.206,13.493-13.3,21.751a13.657,13.657,0,0,0,4.857,14.785c3.5,2.895,13.408,3.629,17.4.6l-5.665-21.269-1.041-.14a42.387,42.387,0,0,0-2.58,5.809,50.654,50.654,0,0,0-1.021,6.764,10.4,10.4,0,0,1,.477-16.5c1.116-.811,2.543-2.233,2.524-3.352C-225.229,38.348-226.094,35.872-226.838,32.383Zm13.471,35.552c8.849-4.554,12.565-10.629,10.144-15.81-2.383-5.1-10.345-8.2-15.837-5.882C-217.2,53.315-215.333,60.442-213.367,67.935Z" transform="translate(664.774 -18.109)"/>
        <path id="Path_8179" data-name="Path 8179" d="M-139.894,132.691c-.863,3.292-1.684,6.216-2.374,9.17a14.562,14.562,0,0,0-.24,3.267c-.015,12.353-.246,24.714.09,37.06.166,6.131-2.639,9.988-7.845,11.841a34.775,34.775,0,0,1-12.424,1.915c-2.017-.057-4.934-2.251-5.647-4.151-.635-1.692.618-4.853,2.062-6.424,4.194-4.564,9.8-6.213,15.951-5.978,1.066.04,2.128.157,3.433.257V141.309c-1.2-.094-2.364-.259-3.524-.262-9.051-.022-18.1.1-27.153-.081-2.973-.062-3.713.925-3.68,3.769.138,12.475-.15,24.957.157,37.426.141,5.757-2.354,9.651-7.228,11.538a35.24,35.24,0,0,1-12.72,2.287c-2.133-.015-5.429-2.209-6.037-4.11s.871-5.247,2.5-6.943c4.079-4.257,9.523-5.753,15.4-5.543,1.078.038,2.155.147,3.683.254v-4.5q0-18.9.015-37.8c.01-4.245.7-4.923,4.9-4.931q18.347-.033,36.695,0C-142.929,132.419-141.977,132.544-139.894,132.691Z" transform="translate(682.684 35.723)"/>
        <path id="Path_8180" data-name="Path 8180" d="M-447.373,90.638c-3.961-9.475-7.865-18.806-11.765-28.14-1.6-3.838-3.16-7.7-4.819-11.507-1.153-2.646-.578-4.357,2.2-5.5q16.46-6.758,32.848-13.695c2.1-.883,3.4-.543,4.32,1.692,6.268,15.141,12.609,30.252,18.917,45.378a7.364,7.364,0,0,1,.524,1.749c1.137,7.795-11.553,18.737-19.19,16.56-3.049-.869-4.616-3.569-3.692-6.912,1.921-6.961,6.868-11.046,13.371-13.529.888-.338,1.817-.569,3.086-.961L-426.507,40.09-458,53.24a26.057,26.057,0,0,0,.831,2.926c5,11.963,9.928,23.953,15.088,35.845a10.513,10.513,0,0,1-.878,10.756,21.074,21.074,0,0,1-11.657,9.011c-2.882.869-5.94,1.319-8.154-1.346-2.2-2.649-1.283-5.6.081-8.29a20.638,20.638,0,0,1,10.565-9.758C-450.684,91.761-449.178,91.294-447.373,90.638Z" transform="translate(561.5 -11.873)"/>
        <path id="Path_8181" data-name="Path 8181" d="M-289.1,338.7c4.62,11.046,9,21.52,13.382,32a57.506,57.506,0,0,0,2.431,5.738c2.679,4.844,1.778,9.21-1.6,13.226-3.988,4.742-8.641,8.468-15.328,7.79-4.029-.409-5.715-4-3.948-8.429,2.3-5.765,6.624-9.57,12.392-11.758,1.018-.387,2.077-.669,3.545-1.136-1.349-3.379-2.6-6.64-3.948-9.863-4.053-9.7-8.151-19.379-12.215-29.072-1.717-4.094-1.353-5.013,2.686-6.7,10.6-4.426,21.254-8.742,31.8-13.3,2.643-1.141,3.725-.359,4.7,2.006,6.128,14.794,12.352,29.547,18.471,44.346a9.451,9.451,0,0,1,.755,4.253c-.638,7.2-10.457,15.339-17.749,14.869-3.963-.256-6.174-3.179-5.11-7.115,1.686-6.24,6.037-10.181,11.71-12.821,1.415-.659,2.936-1.093,4.707-1.739l-14.9-35.581Z" transform="translate(641.168 122.513)"/>
        <path id="Path_8182" data-name="Path 8182" d="M-380.637,373.164c-3.055-7.367-6.035-14.57-9.032-21.766-2.443-5.866-4.822-11.762-7.395-17.571-1.395-3.145-.7-4.869,2.571-6.188,10.651-4.3,21.232-8.773,31.783-13.312,2.573-1.108,3.926-.738,5.04,1.977,6.034,14.7,12.344,29.277,18.2,44.039a11.533,11.533,0,0,1-.213,7.982c-2.47,5.793-7.218,9.488-13.351,11.065-2.626.675-5.918,1-7.267-1.768a9.986,9.986,0,0,1-.215-7.178c2.052-5.374,6.272-8.9,11.652-10.975,1.124-.432,2.273-.8,3.961-1.392l-14.925-35.652-31.747,13.309c3.036,7.3,5.882,14.161,8.745,21.017,2.54,6.09,5.026,12.2,7.678,18.246a9.433,9.433,0,0,1-.53,9.113c-3.118,5.284-7.453,9.21-13.624,10.187-2.129.337-5.322-.225-6.546-1.649s-1.331-4.7-.638-6.714c2.023-5.893,6.608-9.519,12.346-11.709C-383.129,373.84-382.065,373.592-380.637,373.164Z" transform="translate(592.948 121.127)"/>
        <path id="Path_8183" data-name="Path 8183" d="M-309.46,178.341c4.61-3.869,9.068-7.125,12.956-10.963,14.132-13.952,18.909-30.727,14.167-50.043a20.98,20.98,0,0,0-8.936-13.012c-3.085-2.018-6.411-2.905-9.505-2.186,1.037,3.836,2.257,7.545,2.961,11.347.29,1.559-.328,3.4-.89,4.979-1.033,2.908-2.793,5.418-6.243,5.312-3.239-.1-4.834-2.608-5.918-5.316a13.391,13.391,0,0,1,5.84-17.094c16.035-9.548,28.566-4.506,33.6,13.5,4.469,15.985.2,29.953-9.906,42.507a78.662,78.662,0,0,1-22.944,19.2c-1.168.658-2.4,1.211-3.627,1.752A5.481,5.481,0,0,1-309.46,178.341Z" transform="translate(633.35 18.868)"/>
        <path id="Path_8184" data-name="Path 8184" d="M-489.071,251.381c9.884-1.152,19.079-2.221,28.872-3.361,3.274,27.922,6.515,55.556,9.822,83.751l-28.868,3.405C-482.537,307.111-485.778,279.471-489.071,251.381Zm4,8.28c2.62,22.325,5.2,44.3,7.812,66.587l22.881-2.748c-2.611-22.328-5.172-44.231-7.78-66.528Z" transform="translate(549.936 90.173)"/>
        <path id="Path_8185" data-name="Path 8185" d="M-175.724,275.16l-28.612-5.082c4.926-27.785,9.782-55.166,14.727-83.059l28.621,5.1C-165.93,219.963-170.789,247.348-175.724,275.16Zm-24.134-13.118c7.3,1.312,14.235,2.63,21.209,3.67.552.082,1.837-1.678,2.028-2.721,2.771-15.161,5.418-30.348,8.086-45.53,1-5.721,1.99-11.446,3.024-17.4l-22.671-3.945C-192.108,218.282-195.94,239.92-199.858,262.042Z" transform="translate(684.039 61.443)"/>
        <path id="Path_8186" data-name="Path 8186" d="M-182.519,383.961c4.381-9.33,8.685-18.495,12.987-27.659,1.715-3.654,3.458-7.295,5.132-10.968,1.281-2.81,2.914-3.891,6.04-2.249,4.544,2.387,9.211,4.578,13.967,6.506,2.913,1.181,4.323,2.776,3.823,5.994a37.208,37.208,0,0,0-.041,5.206l-21.587-9.973c-4.082,8.673-7.977,16.952-11.872,25.23-2.187,4.648-4.211,9.385-6.65,13.9a9.465,9.465,0,0,1-4.281,4.2c-6.7,2.627-13.334,1.924-19.127-2.371-1.7-1.259-3.379-4.126-3.124-5.991s2.639-4.145,4.614-4.95c5.593-2.274,11.278-1.539,16.672,1.161C-184.893,382.534-183.877,383.183-182.519,383.961Z" transform="translate(682.653 134.583)"/>
        <path id="Path_8187" data-name="Path 8187" d="M-479.8,81.593c0-14.03-.015-27.6.024-41.174a15.215,15.215,0,0,1,.581-4.31,2.533,2.533,0,0,1,1.781-1.521,2.4,2.4,0,0,1,1.772,1.436,35.238,35.238,0,0,0,9.683,15.308c2.477,2.42,2.627,5.984,1.187,8.964a41.488,41.488,0,0,1-7.2,10.234c.831-3.938,2.151-7.846,2.377-11.818.325-5.7-1.809-8.911-5.962-9.935v3.98c0,10.894-.088,21.79.057,32.681a9.685,9.685,0,0,1-4.167,8.488,21.12,21.12,0,0,1-14.8,4.364c-3.164-.279-6.269-1.169-7.25-4.616-.931-3.277,1.206-5.6,3.516-7.524a20.644,20.644,0,0,1,14.288-4.782C-482.707,81.4-481.51,81.5-479.8,81.593Z" transform="translate(543.878 -10.348)"/>
        <path id="Path_8188" data-name="Path 8188" d="M-424.529,112.908q-6.732,10.527-13.43,21c-2.174,3.4-4.123,6.978-6.6,10.144a10.852,10.852,0,0,1-5.425,3.908,19.158,19.158,0,0,1-18.574-5.231c-4.18-4.111-2.671-9.135,3.057-10.415a20.837,20.837,0,0,1,17.362,3.835c.683.494,1.308,1.066,2.351,1.924,2.593-4,5.109-7.827,7.573-11.687,5-7.837,9.964-15.7,14.977-23.53a9.89,9.89,0,0,1,2.315-2.792,3.171,3.171,0,0,1,2.62-.26c.456.181.864,1.524.669,2.152-1.824,5.919-1.474,11.721-.178,17.74.45,2.1-.856,5.141-2.333,6.965-3.28,4.05-8.073,5.579-13.618,6.4C-422.127,122.318-419.6,116.844-424.529,112.908Z" transform="translate(558.475 20.29)"/>
        <path id="Path_8189" data-name="Path 8189" d="M-327.5,109.129c-3.405-15.711-5.925-19.592-12.239-18.653,1,2.283,1.914,4.488,2.918,6.65,4.172,8.974,8.523,17.871,12.446,26.953a10.83,10.83,0,0,1,.468,7.325,19.526,19.526,0,0,1-14.233,12.586c-5.466,1.359-9-2.382-7.337-7.787,1.968-6.385,6.533-10.451,12.589-12.959.774-.319,1.6-.521,2.86-.924-.524-1.331-.93-2.542-1.465-3.692q-8.027-17.285-16.075-34.564a10.551,10.551,0,0,1-1.087-3.441,2.563,2.563,0,0,1,1.111-2.065,2.413,2.413,0,0,1,2.231.5,32.811,32.811,0,0,0,14.848,9.661,8.132,8.132,0,0,1,4.194,4.3C-324.088,98.233-325.153,103.379-327.5,109.129Z" transform="translate(616.065 10.311)"/>
        <path id="Path_8190" data-name="Path 8190" d="M-180.733,49.721c-3.057,10.576-6.053,20.936-9.11,31.513,6.356-.646,8.645-6.1,8.616-19.143,6.063,4.37,5.96,16.578-.453,20.039a30.1,30.1,0,0,0-11.827,10.628c-.493.791-1.951.98-2.961,1.447-.229-1.078-.887-2.277-.622-3.214q6.705-23.642,13.645-47.22a7.918,7.918,0,0,1,1.57-2.857c4.773-5.541,18.492-5.913,23.669-.7,3.043,3.066,2.421,6.955-1.758,9.408-5.5,3.229-11.375,3.389-17.359,1.459C-178.343,50.755-179.318,50.292-180.733,49.721Z" transform="translate(687.422 -9.437)"/>
        <path id="Path_8191" data-name="Path 8191" d="M-322.533,293.375c-4.45,10.057-8.816,19.929-13.233,29.915,6.24.794,9.745-5.251,10.971-18.119,5.959,6.162,3.336,17.441-4.342,20.9-4.1,1.848-7.509,5.19-11.312,7.737a19.044,19.044,0,0,1-3.63,1.493c-.018-1.228-.44-2.633.006-3.661q9.644-22.184,19.564-44.247a9.581,9.581,0,0,1,3.6-3.938c5.541-3.379,15.907-2.18,20.741,2.161,4.063,3.647,3.351,8.261-1.773,10.4-6.018,2.508-11.955,1.818-17.709-1.028C-320.512,294.565-321.327,294.055-322.533,293.375Z" transform="translate(618.13 105.946)"/>
        <path id="Path_8192" data-name="Path 8192" d="M-433.561,251.517c-.075,1.655-.184,2.965-.185,4.275q-.022,18.327-.016,36.655a8.9,8.9,0,0,1-.144,3.263,12.752,12.752,0,0,1-2.293,2.845c-.6-1.036-1.714-2.07-1.72-3.11-.107-16.25-.075-32.5-.057-48.75a8.316,8.316,0,0,1,.274-2.165c2.136-7.764,17.633-12.828,24-7.858,2.689,2.1,2.948,5.312.338,8.38-4.164,4.9-9.736,6.712-16.006,6.7C-430.583,251.754-431.8,251.621-433.561,251.517Z" transform="translate(573.991 83.898)"/>
        <path id="Path_8193" data-name="Path 8193" d="M-343.765,351.872c1.9,13.787,3.733,27.094,5.554,40.4.166,1.209.574,2.523.266,3.619-.3,1.08-1.371,1.943-2.1,2.9-.671-.872-1.78-1.671-1.942-2.629-.875-5.179-1.525-10.4-2.234-15.606-1.487-10.9-3.135-21.781-4.3-32.713a10.543,10.543,0,0,1,2.181-7.012,19.307,19.307,0,0,1,16.8-7.349c5.877.35,8.136,4.923,4.75,9.775-3.741,5.359-9.227,7.8-15.6,8.451C-341.337,351.81-342.293,351.805-343.765,351.872Z" transform="translate(616.113 130.407)"/>
        <path id="Path_8194" data-name="Path 8194" d="M-235.085,159.882c3.052-9.58,6.046-18.99,9.049-28.4,1.411-4.422,2.687-8.9,4.369-13.214.437-1.122,2.162-1.743,3.295-2.593.2,1.271.868,2.689.528,3.794Q-224.7,141.7-231.82,163.858c-2.317,7.252-10.256,10.634-19.321,8.352-5.143-1.294-8.54-4.27-8.5-7.445.04-3.113,3.088-5.74,8.295-7.143C-245.747,156.113-240.46,157.133-235.085,159.882Z" transform="translate(657.991 27.844)"/>
        <path id="Path_8195" data-name="Path 8195" d="M-201.486,104.874c-2.618,10.876-5.191,21.556-7.759,32.235-.8,3.329-1.377,6.731-2.487,9.953-.415,1.2-2.061,1.977-3.146,2.946-.321-1.286-1.153-2.692-.886-3.841q5.5-23.569,11.347-47.058a9.394,9.394,0,0,1,2.864-4.507c4.922-4.263,15.305-4.837,20.833-1.4,4.391,2.732,4.664,7.022.447,10.109a19.144,19.144,0,0,1-14.652,3.263A67.072,67.072,0,0,1-201.486,104.874Z" transform="translate(678.632 16.206)"/>
        <path id="Path_8196" data-name="Path 8196" d="M-232.807,269.387c-1.216,4.922-2.38,9.507-3.482,14.107-2.049,8.557-4.061,17.124-6.094,25.683a7.665,7.665,0,0,1-.8,2.795,19.846,19.846,0,0,1-3,2.692c-.357-1.249-1.244-2.618-.991-3.729,2.607-11.438,5.4-22.834,8.133-34.244.938-3.92,1.918-7.833,2.764-11.774a9.7,9.7,0,0,1,5.991-7.342c5.913-2.512,11.874-2.96,17.7.093,4.988,2.614,5.362,7.19.737,10.406C-218.216,272.5-225.138,272.286-232.807,269.387Z" transform="translate(663.844 93.711)"/>
        <path id="Path_8197" data-name="Path 8197" d="M-501.073,243.877c-3.923-11.418-7.686-22.375-11.45-33.332a71.966,71.966,0,0,1-2.639-7.989c-.252-1.156.635-2.56,1.006-3.851.98.825,2.493,1.461,2.861,2.5,5.4,15.32,10.645,30.692,15.923,46.053A5.357,5.357,0,0,1-495,248.67c.268,5.557-3.095,9.138-7.077,12.1-3.963,2.951-8.352,5.363-13.567,3.416-3.077-1.147-4.008-4.406-2.358-8.083,2.614-5.822,7.318-9.317,13.276-11.254C-503.7,244.517-502.634,244.289-501.073,243.877Z" transform="translate(535.932 66.947)"/>
        <path id="Path_8198" data-name="Path 8198" d="M-235.782,208.37c-1.495,6.122-2.945,12.012-4.37,17.906-1.867,7.717-3.71,15.441-5.578,23.156a5.193,5.193,0,0,1-.812,2.382,12.648,12.648,0,0,1-2.865,1.668c-.316-.943-1.055-1.974-.88-2.817,1.04-5.02,2.277-10,3.473-14.989,2.451-10.213,5.135-20.377,7.292-30.654,1.211-5.766,4.651-8.552,10.007-9.739,4.663-1.033,9.27-1.006,13.626,1.094,5.429,2.62,5.716,7.892.58,11.085-5.535,3.439-11.522,3.654-17.665,1.9C-233.767,209.134-234.53,208.815-235.782,208.37Z" transform="translate(662.384 65.022)"/>
        <path id="Path_8199" data-name="Path 8199" d="M-414.638,331.569c2.407-6.9,4.7-13.448,6.972-20.005,2.317-6.7,4.6-13.408,6.912-20.11a4.726,4.726,0,0,1,.855-2,17.78,17.78,0,0,1,2.915-1.755c.274,1.149,1.065,2.471.746,3.42-5.223,15.52-10.584,30.993-15.931,46.471a7.728,7.728,0,0,1-.981,1.953c-4.551,6.363-20.817,6-25.093-.544-1.82-2.783-1.158-5.849,2.055-7.845,5.859-3.644,12.077-3.332,18.346-1.153A33.87,33.87,0,0,1-414.638,331.569Z" transform="translate(573.405 108.863)"/>
        <path id="Path_8200" data-name="Path 8200" d="M-254.018,308.455c-2.837-8.305-5.584-16.37-8.348-24.429-1.784-5.2-3.63-10.385-5.365-15.6a8.945,8.945,0,0,1-.494-3.558,2.362,2.362,0,0,1,1.522-1.671c.6-.094,1.445.6,1.984,1.143a4.428,4.428,0,0,1,.68,1.681c5.123,14.913,10.375,29.783,15.229,44.782a11.71,11.71,0,0,1-.581,7.983c-2.705,5.529-7.561,8.907-13.6,10.226-2.763.6-5.779.772-7.712-1.948-2-2.82-.915-5.678.646-8.258A21,21,0,0,1-257.5,309.3C-256.472,309-255.416,308.789-254.018,308.455Z" transform="translate(652.268 97.315)"/>
        <path id="Path_8201" data-name="Path 8201" d="M-425.243,61.786c15.335-10.587,27.157-23.518,28.915-43.228h9.961C-387.1,33.357-409.692,58.7-425.243,61.786Z" transform="translate(579.997 -17.898)"/>
        <path id="Path_8202" data-name="Path 8202" d="M-279.75,113.679c-.038-4.3,2.824-7.718,6.571-7.84,3.841-.125,7.139,3.486,7.1,7.78-.032,4.183-3.1,7.6-6.856,7.617C-276.756,121.256-279.713,117.982-279.75,113.679Z" transform="translate(648.52 23.208)"/>
        <path id="Path_8203" data-name="Path 8203" d="M-394.65,27.892c.038-4.207,3.1-7.573,6.881-7.57,3.751,0,6.846,3.421,6.875,7.6.032,4.288-3.266,7.909-7.093,7.792C-391.661,35.6-394.687,32.049-394.65,27.892Z" transform="translate(594.405 -17.067)"/>
        <path id="Path_8204" data-name="Path 8204" d="M-394.654,383.742c.057-4.142,3.2-7.626,6.878-7.618,3.8.009,7.027,3.763,6.878,8-.149,4.206-3.311,7.509-7.07,7.384S-394.711,387.917-394.654,383.742Z" transform="translate(594.403 150.507)"/>
        <path id="Path_8205" data-name="Path 8205" d="M-279.748,132.12c.049-4.278,3.052-7.658,6.786-7.64,3.705.018,6.806,3.464,6.864,7.631.062,4.347-3.107,7.829-7.04,7.74C-276.947,139.766-279.8,136.433-279.748,132.12Z" transform="translate(648.521 31.989)"/>
        <path id="Path_8206" data-name="Path 8206" d="M-161.046,102.031c-4.6-2.6-4.617-6.14,0-10.323Z" transform="translate(702.8 16.554)"/>
        <path id="Path_8207" data-name="Path 8207" d="M-422.066,179.342v-5.056c1.418-.087,2.711-.231,4-.234q13.748-.029,27.5-.006c4.728,0,4.835.157,3.848,5.3Z" transform="translate(581.493 55.33)" fill="#fff"/>
        <path id="Path_8208" data-name="Path 8208" d="M-413.83,174.281v4.909h-35.524v-4.909Z" transform="translate(568.641 55.444)" fill="#fff"/>
        <path id="Path_8209" data-name="Path 8209" d="M-441.576,174.036v5.22h-33.852c-1.034-5-.889-5.213,3.766-5.218C-461.777,174.03-451.894,174.036-441.576,174.036Z" transform="translate(556.115 55.328)" fill="#fff"/>
        <path id="Path_8210" data-name="Path 8210" d="M-161.581,275.763c.5,1.909.893,3.4,1.417,5.4l-34.716,8.963c-.5-1.849-.927-3.42-1.471-5.425" transform="translate(687.799 103.24)" fill="#fff"/>
        <path id="Path_8211" data-name="Path 8211" d="M-188.652,282.587c.535,1.83.99,3.392,1.578,5.407l-33.134,8.535c-.565-1.695-1.078-3.235-1.771-5.318" transform="translate(675.73 106.454)" fill="#fff"/>
        <path id="Path_8212" data-name="Path 8212" d="M-348.533,121.792l-.447,5.528-35.1-3.161c-1.128-5.053-.627-5.729,4.073-5.31C-369.69,119.769-359.378,120.772-348.533,121.792Z" transform="translate(599.144 29.288)" fill="#fff"/>
        <path id="Path_8213" data-name="Path 8213" d="M-410.172,116.2l34.082,3.091-.7,5.493c-3.218-.241-6.227-.428-9.229-.7-6.816-.615-13.626-1.314-20.445-1.9C-411.381,121.765-411.386,121.822-410.172,116.2Z" transform="translate(586.779 28.089)" fill="#fff"/>
        <path id="Path_8214" data-name="Path 8214" d="M-388.9,257.039c1.28,2.465,2.823,4.738,3.589,7.247.316,1.04-.787,2.783-1.661,3.87a10.291,10.291,0,0,0,4.053,15.99,44.436,44.436,0,0,1-.993-6.814,36.292,36.292,0,0,1,1.065-6.249l1.012-.16,11.1,19.017c-4.363,4.372-12.333,6.015-17.609,3.68-5.2-2.3-8.233-7.8-7.977-14.463C-396.083,272.976-392.2,261.246-388.9,257.039Z" transform="translate(593.611 94.421)" fill="#fff"/>
        <path id="Path_8215" data-name="Path 8215" d="M-372.7,284.527l-11.185-19.571c5.151-3.922,14.471-1.912,17.107,1.858C-363.554,271.424-365.488,277.918-372.7,284.527Z" transform="translate(599.475 97.147)" fill="#fff"/>
        <path id="Path_8216" data-name="Path 8216" d="M-389.789,256.931c-2.692-6.543-5.469-12.289-4.89-18.915a10.2,10.2,0,0,1,.674-3.57c.541-1.1,1.514-2.576,2.477-2.723a4.187,4.187,0,0,1,3.23,1.792A18.149,18.149,0,0,1-386.561,251,58.526,58.526,0,0,1-389.789,256.931Z" transform="translate(594.356 82.491)" fill="#fff"/>
        <path id="Path_8217" data-name="Path 8217" d="M-436.153,337.985l.49,5.6-33.953,3.741-.8-5.512Z" transform="translate(558.724 132.545)" fill="#fff"/>
        <path id="Path_8218" data-name="Path 8218" d="M-270.482,245.435l-33.393-8.227c.443-1.867.819-3.461,1.29-5.448,11.209,2.758,22.166,5.453,33.4,8.217C-269.629,241.834-269.985,243.339-270.482,245.435Z" transform="translate(637.158 82.515)" fill="#fff"/>
        <path id="Path_8219" data-name="Path 8219" d="M-339.1,37.509l-1.261,5.446-33.353-8.195,1.261-5.482Z" transform="translate(604.266 -12.849)" fill="#fff"/>
        <path id="Path_8220" data-name="Path 8220" d="M-228.3,27.813c.744,3.489,1.609,5.965,1.649,8.452.019,1.119-1.408,2.542-2.524,3.352a10.4,10.4,0,0,0-.477,16.5,50.644,50.644,0,0,1,1.021-6.764,42.389,42.389,0,0,1,2.58-5.809l1.041.14,5.665,21.269c-3.989,3.026-13.9,2.292-17.4-.6A13.657,13.657,0,0,1-241.6,49.564C-239.508,41.306-234.294,34.838-228.3,27.813Z" transform="translate(666.238 -13.539)" fill="#fff"/>
        <path id="Path_8221" data-name="Path 8221" d="M-221.749,59.177c-1.967-7.493-3.836-14.62-5.693-21.692,5.491-2.318,13.454.785,15.837,5.882C-209.184,48.548-212.9,54.623-221.749,59.177Z" transform="translate(673.156 -9.351)" fill="#fff"/>
      </g>
    </g>
  </g>
</svg>
