<svg xmlns="http://www.w3.org/2000/svg" width="16.25" height="20" viewBox="0 0 16.25 20">
  <path id="flag2" d="M17.972.106a.625.625,0,0,1,.278.519V10a.625.625,0,0,1-.392.58L17.625,10l.233.58h0l-.007,0-.029.011q-.247.1-.5.187c-.33.119-.789.279-1.309.438a12.74,12.74,0,0,1-3.388.654,7.034,7.034,0,0,1-2.7-.656l-.035-.012a5.935,5.935,0,0,0-2.267-.581,11.533,11.533,0,0,0-3.046.6q-.671.209-1.329.456v7.7a.625.625,0,1,1-1.25,0V.625a.625.625,0,0,1,1.25,0V.978c.283-.1.62-.213.988-.325A12.847,12.847,0,0,1,7.625,0a6.828,6.828,0,0,1,2.651.649l.054.022a5.9,5.9,0,0,0,2.3.579,11.533,11.533,0,0,0,3.046-.6q.854-.267,1.686-.6L17.381.05l0,0h0" transform="translate(-2)" fill="#fd8023"/>
</svg>
