<svg xmlns="http://www.w3.org/2000/svg" width="15.381" height="19.237" viewBox="0 0 15.381 19.237">
  <g id="notification" transform="translate(-6.761 -3.93)">
    <path id="Path_8161" data-name="Path 8161" d="M16.921,30.884a2.267,2.267,0,0,0,2.313-2.548H14.6A2.268,2.268,0,0,0,16.921,30.884Z" transform="translate(-2.48 -7.717)" fill="#9f9f9f"/>
    <path id="Path_8162" data-name="Path 8162" d="M21.947,18.177c-.74-.976-2.2-1.548-2.2-5.919,0-4.486-1.981-6.289-3.827-6.722-.173-.043-.3-.1-.3-.284V5.113a1.173,1.173,0,1,0-2.346,0v.139c0,.178-.125.24-.3.284-1.851.438-3.827,2.236-3.827,6.722,0,4.371-1.457,4.938-2.2,5.919a.954.954,0,0,0,.764,1.529H21.187A.955.955,0,0,0,21.947,18.177Z" fill="#9f9f9f"/>
  </g>
</svg>
